<svg width="64" height="64" xmlns="http://www.w3.org/2000/svg">
 <g>
  <g stroke="null" id="svg_7" fill="#fff">
   <path stroke="null" id="svg_4" d="m62.357333,52.382781l0,-40.765565a1.734705,1.734705 0 0 0 -1.734705,-1.734705l-57.245262,0a1.734705,1.734705 0 0 0 -1.734705,1.734705l0,40.765565a1.734705,1.734705 0 0 0 1.734705,1.734705l57.245262,0a1.734705,1.734705 0 0 0 1.734705,-1.734705zm-6.93882,-39.03086l-23.418516,17.780725l-23.418516,-17.780725l46.837032,0zm-50.306442,37.296155l0,-35.56145l25.838429,19.593492a1.734705,1.734705 0 0 0 2.098993,0l25.838429,-19.576145l0,35.56145l-53.775852,-0.017347z"/>
  </g>
 </g>
</svg>