<svg width="64" height="64" xmlns="http://www.w3.org/2000/svg">
 <g fill="#fff">
  <g stroke="null" id="svg_11">
   <g stroke="null" transform="matrix(0.7005757169982689,0,0,0.7005757169982689,-417.6623102242113,-431.78692476611184) " id="svg_4">
    <path stroke="null" id="svg_5" d="m684.346861,635.758312c0,-7.2 -5.8,-13 -13,-13l-59,0c-7.2,0 -13,5.8 -13,13l0,37c0,7.2 5.8,13 13,13l30.3,0l15.6,14.7c0.6,0.5 1.3,0.8 2.1,0.8c0.4,0 0.8,-0.1 1.2,-0.2c1.1,-0.5 1.8,-1.6 1.8,-2.8l0,-12.5l8,0c7.2,0 13,-5.8 13,-13l0,-37zm-6,37c0,3.9 -3.1,7 -7,7l-11,0c-1.7,0 -3,1.3 -3,3l0,8.6l-11.4,-10.8c-0.6,-0.5 -1.3,-0.8 -2.1,-0.8l-31.5,0c-3.9,0 -7,-3.1 -7,-7l0,-37c0,-3.9 3.1,-7 7,-7l59,0c3.9,0 7,3.1 7,7l0,37z"/>
    <path stroke="null" id="svg_6" d="m667.346861,637.258312l-51,0c-1.7,0 -3,1.3 -3,3s1.3,3 3,3l51,0c1.7,0 3,-1.3 3,-3s-1.3,-3 -3,-3z"/>
    <path stroke="null" id="svg_7" d="m667.346861,650.258312l-51,0c-1.7,0 -3,1.3 -3,3s1.3,3 3,3l51,0c1.7,0 3,-1.3 3,-3s-1.3,-3 -3,-3z"/>
    <path stroke="null" id="svg_8" d="m667.346861,663.258312l-51,0c-1.7,0 -3,1.3 -3,3s1.3,3 3,3l51,0c1.7,0 3,-1.3 3,-3s-1.3,-3 -3,-3z"/>
   </g>
  </g>
 </g>
</svg>