<svg width="64" height="64" xmlns="http://www.w3.org/2000/svg">
 <!-- Created with Method Draw - http://github.com/duopixel/Method-Draw/ -->

 <g>
  <title>background</title>
  <rect fill="none" id="canvas_background" height="66" width="66" y="-1" x="-1"/>
  <g display="none" overflow="visible" y="0" x="0" height="100%" width="100%" id="canvasGrid">
   <rect fill="url(#gridpattern)" stroke-width="0" y="0" x="0" height="100%" width="100%"/>
  </g>
 </g>
 <g>
  <title>Layer 1</title>
  <g stroke="null" id="svg_29">
   <g stroke="null" id="svg_30">
    <g stroke="null" transform="matrix(0.11896113775893362,0,0,0.11896113775893362,-1319.3828469139971,-1296.5842067738472) " id="svg_6">
     <path stroke="null" id="svg_7" fill="#ffffff" d="m11416.962282,11325.218512c-0.002,0 -0.002,0 -0.003,0c-18.07,-0.002 -82.925,-5.905 -158.877,-81.834c-63.957,-63.985 -87.406,-112.048 -80.925,-165.874c0.81,-7.269 2.612,-14.523 5.51,-22.169c0.02,-0.053 0.04,-0.106 0.062,-0.16c3.11,-7.937 7.452,-15.587 12.563,-22.121c0.362,-0.463 0.753,-0.906 1.166,-1.328l6.424,-6.527c8.877,-9.018 20.733,-13.984 33.386,-13.984c12.513,0 24.276,4.874 33.124,13.721l24.102,24.104c8.847,8.847 13.721,20.612 13.721,33.124s-4.873,24.276 -13.721,33.126l-1.6,1.598c-0.112,0.113 -0.227,0.225 -0.344,0.334l-6.561,6.166c8.497,13.67 24.051,35.349 40.926,52.231c17.149,17.149 39.499,33.04 53.142,41.414l8.093,-8.091c8.848,-8.847 20.612,-13.719 33.123,-13.719c12.513,0 24.276,4.874 33.124,13.721l23.186,23.186c8.901,8.901 13.774,20.734 13.721,33.322c-0.053,12.587 -5.025,24.38 -14.001,33.205l-6.528,6.421c-0.41,0.404 -0.843,0.784 -1.295,1.138c-6.572,5.162 -14.225,9.525 -22.134,12.615c-8.491,3.285 -15.911,5.268 -22.737,6.071c-0.889,0.105 -3.106,0.31 -6.647,0.31zm-205.248,-258.778c-1.951,5.163 -3.148,9.929 -3.66,14.564c-0.006,0.054 -0.012,0.109 -0.019,0.163c-5.224,43.188 15.646,83.815 72.034,140.228c67.499,67.477 121.843,72.723 136.89,72.724l0.002,0c2.049,0 3.136,-0.106 3.147,-0.106c4.047,-0.479 8.99,-1.844 14.963,-4.157c4.809,-1.878 9.493,-4.503 13.558,-7.592l5.871,-5.774c3.018,-2.966 4.689,-6.933 4.708,-11.165c0.017,-4.232 -1.62,-8.209 -4.613,-11.202l-23.186,-23.186c-2.976,-2.976 -6.931,-4.615 -11.137,-4.615s-8.163,1.639 -11.137,4.613l-16.446,16.443c-4.876,4.876 -12.378,5.959 -18.432,2.659c-0.51,-0.278 -1.037,-0.553 -1.575,-0.836c-1.001,-0.529 -2.031,-1.071 -3.068,-1.654c-14.172,-7.858 -43.447,-27.69 -65.692,-49.935c-22.376,-22.382 -42.173,-51.558 -50.056,-65.765c-0.701,-1.241 -1.182,-2.247 -1.535,-2.987c-0.143,-0.3 -0.28,-0.603 -0.473,-0.95c-3.433,-6.221 -2.212,-13.976 2.963,-18.842l16.681,-15.762c2.973,-2.973 4.61,-6.928 4.61,-11.135c0,-4.206 -1.639,-8.161 -4.613,-11.135l-24.097,-24.101c-2.974,-2.974 -6.93,-4.615 -11.137,-4.615c-4.254,0 -8.24,1.67 -11.225,4.702l-5.76,5.854c-3.044,4.021 -5.651,8.693 -7.566,13.564z"/>
     <path stroke="null" stroke-dasharray="5,2,2,2" id="svg_8" fill="#ffffff" d="m11490.582282,11424.221512l-314.718,0c-35.772,0 -64.876,-29.104 -64.876,-64.877l0,-382.246c0,-35.773 29.104,-64.877 64.876,-64.877l314.718,0c35.772,0 64.876,29.104 64.876,64.877l0,382.247c0.001,35.772 -29.103,64.876 -64.876,64.876zm-314.718,-480.905c-18.626,0 -33.781,15.154 -33.781,33.782l0,382.247c0,18.626 15.154,33.782 33.781,33.782l314.718,0c18.626,0 33.78,-15.154 33.78,-33.782l0,-382.247c0,-18.626 -15.154,-33.782 -33.781,-33.782c0.001,0 -314.717,0 -314.717,0z"/>
    </g>
    <path stroke="null" id="svg_9" fill="none" d="m55.666713,56.071423l-2.364828,0l0,-48.142859l2.364828,0c2.25931,0 4.090717,1.831407 4.090717,4.090717l0,39.961544c-0.000119,2.259191 -1.831645,4.090598 -4.090717,4.090598z"/>
    <g stroke="null" transform="matrix(0.11896113775893362,0,0,0.11896113775893362,-1319.3828469139971,-1296.5842067738472) " id="svg_10">
     <path stroke="null" id="svg_11" fill="#ffffff" d="m11558.813282,11386.117512l-19.879,0c-8.587,0 -15.548,-6.962 -15.548,-15.548l0,-404.696c0,-8.585 6.961,-15.548 15.548,-15.548l19.879,0c27.533,0 49.935,22.4 49.935,49.935l0,335.922c-0.002,27.535 -22.403,49.935 -49.935,49.935zm-4.333,-31.096l4.332,0c10.387,0 18.839,-8.452 18.839,-18.839l0,-335.922c0,-10.389 -8.452,-18.839 -18.839,-18.839l-4.332,0l0,373.6z"/>
     <rect stroke="null" id="svg_12" fill="#ffffff" height="31.09" width="58.6" y="11082.311512" x="11538.938282"/>
     <rect stroke="null" id="svg_13" fill="#ffffff" height="31.09" width="58.6" y="11223.021512" x="11538.938282"/>
    </g>
    <g stroke="null" transform="matrix(0.11896113775893362,0,0,0.11896113775893362,-1319.3828469139971,-1296.5842067738472) " id="svg_14"/>
    <g stroke="null" transform="matrix(0.11896113775893362,0,0,0.11896113775893362,-1319.3828469139971,-1296.5842067738472) " id="svg_15"/>
    <g stroke="null" transform="matrix(0.11896113775893362,0,0,0.11896113775893362,-1319.3828469139971,-1296.5842067738472) " id="svg_16"/>
    <g stroke="null" transform="matrix(0.11896113775893362,0,0,0.11896113775893362,-1319.3828469139971,-1296.5842067738472) " id="svg_17"/>
    <g stroke="null" transform="matrix(0.11896113775893362,0,0,0.11896113775893362,-1319.3828469139971,-1296.5842067738472) " id="svg_18"/>
    <g stroke="null" transform="matrix(0.11896113775893362,0,0,0.11896113775893362,-1319.3828469139971,-1296.5842067738472) " id="svg_19"/>
    <g stroke="null" transform="matrix(0.11896113775893362,0,0,0.11896113775893362,-1319.3828469139971,-1296.5842067738472) " id="svg_20"/>
    <g stroke="null" transform="matrix(0.11896113775893362,0,0,0.11896113775893362,-1319.3828469139971,-1296.5842067738472) " id="svg_21"/>
    <g stroke="null" transform="matrix(0.11896113775893362,0,0,0.11896113775893362,-1319.3828469139971,-1296.5842067738472) " id="svg_22"/>
    <g stroke="null" transform="matrix(0.11896113775893362,0,0,0.11896113775893362,-1319.3828469139971,-1296.5842067738472) " id="svg_23"/>
    <g stroke="null" transform="matrix(0.11896113775893362,0,0,0.11896113775893362,-1319.3828469139971,-1296.5842067738472) " id="svg_24"/>
    <g stroke="null" transform="matrix(0.11896113775893362,0,0,0.11896113775893362,-1319.3828469139971,-1296.5842067738472) " id="svg_25"/>
    <g stroke="null" transform="matrix(0.11896113775893362,0,0,0.11896113775893362,-1319.3828469139971,-1296.5842067738472) " id="svg_26"/>
    <g stroke="null" transform="matrix(0.11896113775893362,0,0,0.11896113775893362,-1319.3828469139971,-1296.5842067738472) " id="svg_27"/>
    <g stroke="null" transform="matrix(0.11896113775893362,0,0,0.11896113775893362,-1319.3828469139971,-1296.5842067738472) " id="svg_28"/>
   </g>
  </g>
 </g>
</svg>