<svg width="64" height="64" xmlns="http://www.w3.org/2000/svg">
 <g>
  <g stroke="null" id="svg_11" fill="#fff">
   <g stroke="null" transform="matrix(0.767989095873798,0,0,0.767989095873798,-477.6535538875414,-480.36076275550136) " id="svg_4">
    <path stroke="null" id="svg_5" d="m637.620812,654.79586l0.8,0l0,41.5c0,5.5 4.5,10 10,10l30.4,0c5.5,0 10,-4.5 10,-10l0,-41.5l0.8,0c2.8,0 5,-2.2 5,-5l0,-8.2c0,-2.8 -2.2,-5 -5,-5l-12.4,0l0,-3.1c0,-3 -2.5,-5.5 -5.5,-5.5l-16.2,0c-3,0 -5.5,2.5 -5.5,5.5l0,3.1l-12.4,0c-2.8,0 -5,2.2 -5,5l0,8.2c0,2.7 2.3,5 5,5zm47.2,41.5c0,3.3 -2.7,6 -6,6l-30.4,0c-3.3,0 -6,-2.7 -6,-6l0,-41.5l42.4,0l0,41.5zm-30.8,-62.8c0,-0.8 0.7,-1.5 1.5,-1.5l16.1,0c0.8,0 1.5,0.7 1.5,1.5l0,3.1l-19.1,0l0,-3.1zm-17.4,8.1c0,-0.6 0.4,-1 1,-1l52,0c0.6,0 1,0.4 1,1l0,8.2c0,0.6 -0.4,1 -1,1l-52,0c-0.6,0 -1,-0.4 -1,-1l0,-8.2z"/>
    <rect stroke="null" id="svg_6" height="29.2" width="4" y="663.39586" x="671.920812"/>
    <rect stroke="null" id="svg_7" height="29.2" width="4" y="663.39586" x="661.620812"/>
    <rect stroke="null" id="svg_8" height="29.2" width="4" y="663.39586" x="651.320812"/>
   </g>
  </g>
 </g>
</svg>